<?xml version="1.0" encoding="UTF-8" standalone="no"?>
<!DOCTYPE svg PUBLIC "-//W3C//DTD SVG 1.1//EN" "http://www.w3.org/Graphics/SVG/1.1/DTD/svg11.dtd">
<!-- Created with Vectornator (http://vectornator.io/) -->
<svg height="100%" stroke-miterlimit="10"
    style="fill-rule:nonzero;clip-rule:evenodd;stroke-linecap:round;stroke-linejoin:round;" version="1.1"
    viewBox="0 0 280 36" width="100%" xml:space="preserve" xmlns="http://www.w3.org/2000/svg"
    xmlns:vectornator="http://vectornator.io" xmlns:xlink="http://www.w3.org/1999/xlink">
    <defs />
    <clipPath id="ArtboardFrame">
        <rect height="36" width="280" x="0" y="0" />
    </clipPath>
    <g clip-path="url(#ArtboardFrame)" id="Capa-1" vectornator:layerName="Capa 1">
        <path
            d="M11.4167 1.10225C20.0253-0.336845 26.1983 2.77557 29.934 10.4394C26.9108 11.2508 24.6361 10.2679 23.1118 7.49083C14.8677 3.1639 8.8574 5.29346 5.08183 13.8794C3.2184 25.4151 7.92861 31.1484 19.2134 31.0794C21.724 30.3106 23.6732 28.8363 25.061 26.6566C26.6856 25.3461 28.3093 25.3461 29.934 26.6566C25.0279 35.3933 17.8802 37.8504 8.4929 34.028C1.11815 28.4718-1.31833 21.1004 1.18345 11.9137C3.50494 7.11803 6.91601 3.51429 11.4167 1.10225Z"
            fill="#337547" fill-rule="evenodd" opacity="0.838" stroke="none" />
        <path
            d="M40.6545 1.10225C55.2305-0.0910334 60.9163 6.46138 57.7099 20.7594C52.2823 27.9527 45.623 29.4269 37.7307 25.1823C33.1988 20.6863 31.737 15.2806 33.345 8.96512C34.9921 5.50457 37.4286 2.88359 40.6545 1.10225ZM42.6037 5.03369C51.4042 4.89441 55.1399 9.15343 53.8115 17.8108C51.335 22.301 47.5985 23.7753 42.6037 22.2337C34.8693 16.5504 34.8693 10.8171 42.6037 5.03369Z"
            fill="#327446" fill-rule="evenodd" opacity="0.856" stroke="none" />
        <path
            d="M64.0447 1.10225C68.6048 0.939298 73.1523 1.10304 77.689 1.59368C81.9149 2.74402 84.1886 5.52875 84.5112 9.94797C84.0911 12.7644 83.1165 15.3853 81.5874 17.8108C87.0753 23.6759 86.7498 29.0817 80.6128 34.028C75.1824 35.3555 69.6603 35.847 64.0447 35.5023C64.0447 24.0356 64.0447 12.569 64.0447 1.10225ZM67.9431 5.03369C70.8844 4.87191 73.8082 5.03565 76.7144 5.52511C81.0455 7.60032 81.6956 10.5489 78.6636 14.3708C75.1941 15.5863 71.6202 16.0778 67.9431 15.8451C67.9431 12.2413 67.9431 8.63753 67.9431 5.03369ZM67.9431 19.7766C70.8844 19.6148 73.8082 19.7785 76.7144 20.268C83.0434 23.7678 83.0434 27.3717 76.7144 31.0794C73.8082 31.5689 70.8844 31.7326 67.9431 31.5708C67.9431 27.6394 67.9431 23.708 67.9431 19.7766Z"
            fill="#337547" fill-rule="evenodd" opacity="0.831" stroke="none" />
        <path
            d="M91.3333 1.10225C96.6254 0.769065 101.824 1.26049 106.927 2.57654C113.576 9.15717 113.252 15.3819 105.952 21.2508C109.081 26.0868 112.329 30.8373 115.698 35.5023C114.164 36.6138 112.539 36.7775 110.825 35.9937C107.816 31.234 104.567 26.6473 101.079 22.2337C99.1564 21.7467 97.2072 21.5829 95.2317 21.7423C95.2317 26.329 95.2317 30.9156 95.2317 35.5023C93.607 35.5023 91.9834 35.5023 90.3587 35.5023C91.271 24.0727 91.5965 12.606 91.3333 1.10225ZM95.2317 5.03369C98.6213 4.7233 101.871 5.21473 104.978 6.50797C107.577 9.78413 107.577 13.0604 104.978 16.3366C101.834 17.5149 98.5853 18.0063 95.2317 17.8108C95.2317 13.5518 95.2317 9.2927 95.2317 5.03369Z"
            fill="#327446" fill-rule="evenodd" opacity="0.846" stroke="none" />
        <path
            d="M136.165 1.10225C137.135 1.01792 137.947 1.34561 138.601 2.08511C144.51 13.3463 149.87 24.813 154.682 36.4851C142.969 36.8117 131.274 36.4842 119.597 35.5023C125.395 24.1343 130.918 12.6677 136.165 1.10225ZM137.139 8.96512C140.283 14.3185 143.207 19.8881 145.911 25.6737C142.381 26.8124 138.807 26.9763 135.19 26.1651C137.655 25.1213 140.254 24.3023 142.987 23.708C141.513 20.0705 139.564 16.7944 137.139 13.8794C133.741 19.0948 131.142 24.6643 129.342 30.588C135.872 30.2636 142.369 30.5912 148.834 31.5708C141.362 32.8813 133.891 32.8813 126.419 31.5708C130.269 24.1337 133.842 16.5984 137.139 8.96512Z"
            fill="#3c8b43" fill-rule="evenodd" opacity="0.789" stroke="none" />
        <path
            d="M159.555 1.10225C161.297 0.821945 162.922 1.14953 164.428 2.08511C169.272 10.0802 174.306 17.943 179.534 25.6737C180.021 17.4897 180.183 9.29929 180.021 1.10225C181.32 1.10225 182.621 1.10225 183.92 1.10225C183.92 12.569 183.92 24.0356 183.92 35.5023C181.754 35.8188 179.967 35.1636 178.559 33.5366C174.072 25.4124 169.199 17.5495 163.941 9.94797C163.453 18.7876 163.291 27.6333 163.453 36.4851C162.154 36.4851 160.854 36.4851 159.555 36.4851C159.555 24.6908 159.555 12.8965 159.555 1.10225Z"
            fill="#4c8425" fill-rule="evenodd" opacity="0.881" stroke="none" />
        <path
            d="M188.793 1.10225C195.615 1.10225 202.437 1.10225 209.259 1.10225C209.415 2.77233 209.253 4.41045 208.772 6.01654C204.062 14.207 199.35 22.3975 194.64 30.588C199.47 31.5651 204.343 31.8927 209.259 31.5708C209.259 32.8813 209.259 34.1918 209.259 35.5023C202.437 35.5023 195.615 35.5023 188.793 35.5023C188.64 34.1524 188.802 32.8419 189.28 31.5708C194.238 23.2113 198.948 14.6932 203.412 6.01654C198.581 5.03949 193.708 4.7118 188.793 5.03369C188.793 3.72324 188.793 2.4127 188.793 1.10225Z"
            fill="#4c8525" fill-rule="evenodd" opacity="0.867" stroke="none" />
        <path
            d="M219.98 1.10225C221.722 0.821945 223.347 1.14953 224.853 2.08511C228.562 10.3601 231.486 18.8782 233.624 27.6394C232.183 27.8969 230.884 27.5693 229.726 26.6566C228.44 20.0782 224.542 17.9486 218.03 20.268C217.031 22.304 216.22 24.4334 215.594 26.6566C214.272 27.5217 212.811 27.8493 211.208 27.6394C213.935 18.7327 216.859 9.88694 219.98 1.10225ZM221.929 7.98226C223.307 10.309 224.607 12.7661 225.827 15.3537C223.904 15.8407 221.955 16.0044 219.98 15.8451C220.63 13.2241 221.279 10.6032 221.929 7.98226Z"
            fill="#4b8426" fill-rule="evenodd" opacity="0.885" stroke="none" />
        <path
            d="M238.497 1.10225C243.381 0.939197 248.254 1.10294 253.116 1.59368C258.582 4.81441 260.369 9.56495 258.476 15.8451C257.711 17.6005 256.575 19.0748 255.065 20.268C250.942 21.5358 246.719 22.0272 242.395 21.7423C242.714 26.3752 242.388 30.9619 241.421 35.5023C240.85 35.708 240.362 36.0356 239.959 36.4851C238.872 35.0109 238.06 33.3728 237.522 31.5708C237.801 21.4147 238.126 11.2585 238.497 1.10225ZM242.395 5.03369C245.66 4.87151 248.908 5.03536 252.141 5.52511C255.534 8.86378 255.858 12.4676 253.116 16.3366C249.679 17.6504 246.107 18.1419 242.395 17.8108C242.395 13.5518 242.395 9.2927 242.395 5.03369Z"
            fill="#4c8425" fill-rule="evenodd" opacity="0.879" stroke="none" />
        <path
            d="M268.709 1.10225C273.031 2.14241 273.355 3.78054 269.684 6.01654C267.536 4.75652 267.21 3.11849 268.709 1.10225Z"
            fill="#4d8425" fill-rule="evenodd" opacity="0.924" stroke="none" />
        <path
            d="M279.43 13.8794C279.43 15.8451 279.43 17.8108 279.43 19.7766C276.737 24.3176 272.839 25.9557 267.735 24.6908C266.771 28.2363 266.445 31.8402 266.76 35.5023C265.135 35.5023 263.512 35.5023 261.887 35.5023C261.836 26.6387 262.162 17.7929 262.862 8.96512C266.45 8.80265 270.023 8.96649 273.582 9.45655C276.266 10.0448 278.215 11.5191 279.43 13.8794ZM266.76 12.8965C271.03 11.9469 273.954 13.4212 275.531 17.3194C273.907 21.2161 270.983 22.6904 266.76 21.7423C266.76 18.7937 266.76 15.8451 266.76 12.8965Z"
            fill="#4c8526" fill-rule="evenodd" opacity="0.912" stroke="none" />
        <path
            d="M14.3405 14.8623C17.9084 14.7149 18.883 16.1892 17.2642 19.2851C13.5676 19.7634 12.593 18.2891 14.3405 14.8623Z"
            fill="#2f7146" fill-rule="evenodd" opacity="0.784" stroke="none" />
        <path
            d="M44.5528 30.588C48.8742 31.6281 49.1987 33.2663 45.5274 35.5023C43.3794 34.2423 43.0539 32.6042 44.5528 30.588Z"
            fill="#32764a" fill-rule="evenodd" opacity="0.753" stroke="none" />
        <path
            d="M221.929 30.588C223.636 30.507 224.611 31.326 224.853 33.0451C223.513 36.0616 221.889 36.2255 219.98 33.5366C220.655 32.5362 221.304 31.5534 221.929 30.588Z"
            fill="#4c8326" fill-rule="evenodd" opacity="0.82" stroke="none" />
    </g>
</svg>