<svg width="90" height="119" viewBox="0 0 90 119" fill="none" xmlns="http://www.w3.org/2000/svg">
  <path
    d="M52.8098 73.1262C56.9004 76.1217 55.2893 82.0121 52.4952 85.3475L52.4196 84.5168C56.4976 87.5501 56.1704 92.6223 52.986 96.1968L52.9483 94.8879C54.8614 96.952 57.215 101.131 54.0936 103.17C53.4643 103.572 52.6965 104.126 51.8784 103.862C51.5764 103.723 51.4379 103.434 51.4127 103.17L51.6015 103.132C52.1302 104 52.986 102.868 53.4517 102.427C55.5662 100.275 52.3567 97.2541 50.9471 95.5927C53.8671 92.3454 55.4278 88.8213 51.6393 85.4104L51.1988 85.0202L51.5638 84.5797C54.3328 81.6219 56.2836 76.3609 52.7091 73.2647C52.6965 73.2772 52.8098 73.1262 52.8098 73.1262Z"
    fill="#8C82FC" />
  <path
    d="M50.6324 50.2444C51.6645 49.9045 52.6965 49.4137 53.7412 49.2752C53.9803 49.3004 54.8236 49.4514 54.8865 49.829C54.3076 50.5464 53.6279 50.6723 52.8224 50.5339C52.105 50.5087 51.375 50.4583 50.645 50.3702L50.6324 50.2444Z"
    fill="#8C82FC" />
  <path
    d="M37.3161 73.2772C33.5402 76.5748 35.919 81.9995 38.8139 85.0328L38.3734 85.423C34.5723 88.8339 36.1456 92.358 39.0656 95.6053L38.4866 96.2346C37.1651 97.8834 34.6227 100.363 36.5609 102.427C37.0266 102.88 37.8825 103.988 38.4111 103.132L38.5999 103.17C38.5873 103.434 38.4363 103.723 38.1342 103.862C37.3161 104.126 36.5484 103.572 35.919 103.17C32.7976 101.131 35.1513 96.952 37.0644 94.8879L37.0266 96.1968C33.8549 92.6223 33.5276 87.5501 37.593 84.5168L37.5175 85.3475C35.4785 82.7044 33.8549 79.1047 35.1639 75.7819C35.5792 74.7247 36.2589 73.7681 37.1903 73.1262C37.2028 73.1262 37.3161 73.2772 37.3161 73.2772Z"
    fill="#8C82FC" />
  <path
    d="M39.3803 50.3702C38.2978 50.4457 37.1777 50.6723 36.133 50.5339C35.9065 50.4457 35.1261 50.0933 35.1639 49.7157C35.9065 49.162 36.5861 49.2123 37.3413 49.5521C38.0335 49.7535 38.7258 49.9926 39.4054 50.257C39.3928 50.2444 39.3803 50.3702 39.3803 50.3702Z"
    fill="#8C82FC" />
  <path
    d="M54.5845 21.5729C55.3774 24.7824 55.8934 31.4531 51.0981 31.516L51.0226 31.3398C52.5455 29.0617 53.7412 27.0605 54.1062 24.3418C54.2698 23.4482 54.3453 22.5294 54.3957 21.598L54.5845 21.5729Z"
    fill="#8C82FC" />
  <path
    d="M38.9146 31.516C36.0071 30.7105 34.5597 27.1863 34.4842 24.4048C34.5723 23.423 34.7989 22.4539 35.4282 21.5729L35.617 21.598C37.1903 24.8705 35.4659 29.0994 38.9775 31.3398C38.9901 31.3398 38.9146 31.516 38.9146 31.516Z"
    fill="#8C82FC" />
  <path
    d="M53.4014 1.06983C53.8797 3.7507 54.2698 6.44416 54.6474 9.13762C55.1635 11.8688 55.4026 14.5623 54.5719 17.2935L54.3831 17.3061C53.1748 14.7133 53.0238 12.0199 53.1371 9.23831C53.1245 6.51968 53.1119 3.80105 53.2126 1.08241L53.4014 1.06983Z"
    fill="#8C82FC" />
  <path
    d="M36.1708 1.08241C36.2715 3.81363 36.2589 6.51968 36.2463 9.23831C36.3722 12.0073 36.2085 14.7133 35.0002 17.3061L34.8115 17.2935C33.9808 14.5497 34.2199 11.8563 34.7359 9.13762C35.1135 6.44416 35.4911 3.7507 35.982 1.06983L36.1708 1.08241Z"
    fill="#8C82FC" />
  <path
    d="M38.2475 0.427929C39.6194 0.264308 41.0039 0.151031 42.3884 -3.8147e-06C42.3884 2.88225 43.0554 5.71416 43.1813 8.55866C43.2442 9.42711 43.1687 10.2578 43.496 11.1137L43.3827 11.2647C42.8792 11.1011 42.4513 10.6606 42.1996 10.2452C40.362 7.31262 41.2808 3.72553 41.4696 0.516033L41.9479 1.0069C40.7144 0.881035 39.4809 0.780344 38.2601 0.629309V0.427929H38.2475Z"
    fill="#8C82FC" />
  <path
    d="M50.2548 0.616723C49.0214 0.767758 47.7879 0.868449 46.567 0.994311L47.0453 0.503447C47.2215 3.71294 48.1529 7.31262 46.3153 10.2326C46.0636 10.648 45.6231 11.0885 45.1322 11.2521L45.0189 11.1011C45.3462 10.2578 45.2706 9.41452 45.3336 8.54607C45.4469 5.71416 46.1139 2.88225 46.1139 -3.8147e-06C47.4984 0.151031 48.8703 0.251721 50.2548 0.427929V0.616723Z"
    fill="#8C82FC" />
  <path
    d="M36.5484 34.0458C35.2771 37.9602 34.3206 42.3905 36.5358 46.1161L36.4603 46.2168C34.157 45.3106 33.6913 42.3024 34.2325 40.1754C34.6101 37.9602 35.403 35.9086 36.4477 33.9955C36.4351 33.9829 36.5484 34.0458 36.5484 34.0458Z"
    fill="#8C82FC" />
  <path
    d="M53.9552 33.9955C54.5719 36.0219 55.025 38.086 55.2515 40.2257C55.4907 42.0759 55.5662 44.3414 54.0936 45.7762C53.8796 45.9776 53.5776 46.1035 53.3384 46.2168L53.2755 46.1161C54.3076 44.3288 54.0055 42.2898 54.2446 40.2886C54.2572 38.2119 54.0936 36.11 53.8293 34.0458C53.8293 34.0333 53.9552 33.9955 53.9552 33.9955Z"
    fill="#8C82FC" />
  <path
    d="M58.5617 32.4348C63.2187 32.2586 67.9007 32.095 72.4947 31.4027C73.6401 31.1636 75.2511 30.9874 76.0818 30.27L77.3027 29.8546C81.4687 30.572 85.4334 31.9062 89.1967 33.9074L89.1338 34.1465C84.8796 34.1465 80.7513 33.4795 76.7363 32.1705L77.9572 31.7551C77.3782 32.3845 76.8999 32.4851 76.4468 32.6614C73.6653 33.4543 70.783 33.341 67.9511 33.341C64.8045 33.2655 61.6705 33.0389 58.5491 32.6865L58.5617 32.4348Z"
    fill="#8C82FC" />
  <path
    d="M83.1805 36.0093C85.0306 37.2805 87.787 39.3698 89.4862 36.8148L89.612 36.84C89.9519 38.0483 88.882 39.609 87.4095 39.2691C85.5844 38.816 84.2 37.4315 83.0924 36.0974L83.1805 36.0093Z"
    fill="#8C82FC" />
  <path
    d="M89.2219 40.6285C89.2093 42.2647 87.9129 44.6183 85.9243 44.4799C85.2572 44.4169 84.6908 44.0897 84.2755 43.5988L84.3258 43.4855C85.4586 43.2086 86.2012 43.3345 87.2081 42.9821C88.0891 42.5416 88.731 41.5598 89.096 40.6159L89.2219 40.6285Z"
    fill="#8C82FC" />
  <path
    d="M76.4972 41.6731C78.1963 46.0783 80.4367 46.1664 84.6656 45.3231L84.7412 45.4238C82.74 48.004 78.5487 47.1985 77.2523 44.3414C76.8118 43.4981 76.5349 42.6045 76.3839 41.6983L76.4972 41.6731Z"
    fill="#8C82FC" />
  <path
    d="M71.3494 42.8436C72.4192 44.933 74.1309 47.2866 76.7866 46.33L76.8748 46.4181C76.107 48.218 73.9925 48.0795 72.9478 46.6195C72.0416 45.5119 71.513 44.2407 71.2235 42.8688L71.3494 42.8436Z"
    fill="#8C82FC" />
  <path
    d="M66.7806 44.0142C67.2211 44.7945 67.8001 45.5749 68.442 45.9525C69.2601 46.2419 69.5873 46.1035 70.569 46.1161L70.6446 46.2168C70.4809 46.7454 70.0908 47.2237 69.4614 47.3747C68.807 47.5509 68.1651 47.1356 67.8126 46.7454C67.0449 45.9399 66.7932 44.9959 66.6673 44.0645L66.7806 44.0142Z"
    fill="#8C82FC" />
  <path
    d="M61.0412 42.8688C61.0538 43.8757 61.6831 44.7442 62.6019 45.084C63.6088 45.3609 64.4899 45.4364 65.459 46.1035V46.2294C64.3766 46.8964 63.0928 46.7454 62.1111 45.965C61.0916 45.3231 60.5378 43.989 60.9279 42.8562C60.9154 42.8436 61.0412 42.8688 61.0412 42.8688Z"
    fill="#8C82FC" />
  <path
    d="M55.7802 45.3483C56.485 45.7385 57.2779 45.8392 57.945 45.7133C58.7254 45.4238 59.2162 45.235 60.1728 45.3357L60.2483 45.4364C59.9714 46.4685 58.9519 46.909 57.9828 46.7076C57.0388 46.6195 56.1955 46.1161 55.7047 45.4238L55.7802 45.3483Z"
    fill="#8C82FC" />
  <path
    d="M31.3754 32.4851C26.6556 32.6614 21.9231 32.6614 17.2159 32.0572C15.3783 31.6796 13.5407 31.73 12.0932 30.1944L13.2889 30.6979C9.1984 31.7174 5.01976 32.1076 0.77819 31.8055L0.740433 31.5538C4.62959 29.8294 8.68237 28.7722 12.8862 28.3443L14.0819 28.8477C16.1208 30.3581 19.5821 30.572 22.1245 31.0755C25.1955 31.5412 28.3044 31.9062 31.4132 32.2334C31.3754 32.2334 31.3754 32.4851 31.3754 32.4851Z"
    fill="#8C82FC" />
  <path
    d="M6.64339 34.1843C5.29666 35.5184 2.89268 37.8721 0.790772 36.7393C-0.027335 36.1352 -0.102852 35.1786 0.0859421 34.4738L0.211805 34.4486C1.34457 36.3617 3.06889 35.9464 4.78062 35.0653C5.38476 34.7884 5.9889 34.4486 6.56787 34.0836L6.64339 34.1843Z"
    fill="#8C82FC" />
  <path
    d="M0.33767 38.2622C0.63974 39.2188 1.20612 40.2383 2.06199 40.7543C3.04372 41.1697 3.78631 41.1067 4.90649 41.4592L4.94425 41.585C4.03803 42.6171 2.35147 42.5793 1.45785 41.5598C0.488707 40.641 0.211809 39.4076 0.224396 38.2874C0.211809 38.2748 0.33767 38.2622 0.33767 38.2622Z"
    fill="#8C82FC" />
  <path
    d="M12.9617 40.2383C12.2191 44.4673 7.46149 47.2488 4.36526 43.3723L4.44078 43.2716C6.86993 43.838 9.6515 44.7693 11.401 42.4409C11.98 41.7864 12.4708 41.0186 12.8358 40.2005L12.9617 40.2383Z"
    fill="#8C82FC" />
  <path
    d="M18.0214 41.7612C17.6438 43.1205 17.0271 44.3414 16.0453 45.3861C15.5545 45.8769 14.837 46.4937 13.9057 46.3804C12.9995 46.2671 12.3701 45.6126 12.1436 44.9204L12.2317 44.8323C14.107 45.6 15.5796 44.8197 16.7502 43.3219C17.1781 42.8311 17.5809 42.3024 17.8955 41.7361L18.0214 41.7612Z"
    fill="#8C82FC" />
  <path
    d="M22.4895 43.259C22.2504 44.5805 21.2434 46.7454 19.4688 46.3678C18.8395 46.179 18.4871 45.6756 18.3738 45.1343L18.4619 45.0462C19.431 45.1092 19.7834 45.2602 20.6015 45.0337C21.2686 44.7064 21.8854 43.9638 22.3888 43.2212L22.4895 43.259Z"
    fill="#8C82FC" />
  <path
    d="M28.2918 42.4535C28.9337 44.9204 25.548 47.06 23.5341 45.5119L23.5467 45.3861C24.8809 44.4673 26.5297 45.0714 27.5995 43.838C27.9142 43.4855 28.1281 42.9947 28.1659 42.4786L28.2918 42.4535Z"
    fill="#8C82FC" />
  <path
    d="M33.3263 45.4112C32.3194 46.7454 29.2357 47.2362 28.7826 45.0966L28.8581 44.9959C29.8147 44.9581 30.293 45.1721 31.0482 45.5245C31.7026 45.7007 32.5082 45.6504 33.2382 45.3106L33.3263 45.4112Z"
    fill="#8C82FC" />
  <path
    d="M55.2767 52.233C55.4026 53.9447 55.7047 55.7068 55.4907 57.3808C55.2893 57.922 55.025 58.4632 54.4335 58.9541L54.2447 58.9289C53.414 57.7584 53.5021 56.6759 54.0055 55.4803C54.3202 54.3852 54.6474 53.2902 55.0753 52.1952C55.0879 52.2078 55.2767 52.233 55.2767 52.233Z"
    fill="#8C82FC" />
  <path
    d="M54.9746 60.7539C55.4278 63.5103 56.0067 66.3548 55.6921 69.1364C55.4152 70.0551 55.0124 71.4396 53.8796 71.6284L53.8041 71.4522C53.9929 70.6593 53.7664 69.7783 53.8041 68.8972C53.779 68.0288 54.0684 67.1477 54.1817 66.2415C54.4083 64.4417 54.5719 62.6041 54.7733 60.7539C54.7859 60.7665 54.9746 60.7539 54.9746 60.7539Z"
    fill="#8C82FC" />
  <path
    d="M35.189 52.082C35.7177 53.7056 36.4477 55.3544 36.6616 57.0158C36.5987 57.5947 36.4728 58.1737 36.0323 58.803L35.8435 58.8282C34.7611 57.8968 34.5723 56.827 34.7737 55.5432C34.8115 54.3978 34.8618 53.2525 35.0128 52.0946L35.189 52.082Z"
    fill="#8C82FC" />
  <path
    d="M35.189 60.6406C35.403 63.3844 35.8561 66.1031 36.1582 68.7839C36.1959 69.6524 35.9694 70.5334 36.1582 71.3389L36.0827 71.5152C35.4659 71.49 35.0884 70.8858 34.8115 70.4327C34.0185 69.1112 34.094 67.6134 34.2577 66.1786C34.3835 64.3032 34.6101 62.4656 34.9877 60.6406H35.189Z"
    fill="#8C82FC" />
  <path
    d="M57.4416 41.8871C62.5012 42.0004 67.6994 42.0759 72.6583 41.2704C74.2442 40.9557 75.6665 40.6033 76.8244 39.6593C78.9011 37.6078 81.1037 35.4429 83.1175 33.3158L83.1931 33.2403C83.2056 33.2277 83.2056 33.2403 83.2056 33.2277C83.3819 33.2277 82.8155 33.1648 83.5455 33.6808C83.8601 33.5676 83.6965 33.5927 83.7469 33.5927C83.7846 33.555 83.772 33.555 83.7469 33.5676L83.5832 33.7312L83.2434 34.0836L83.0168 33.9577L83.1427 33.4669C83.1805 33.3788 83.2056 33.2026 83.2937 33.1019C83.3441 33.0893 83.1805 33.1145 83.4951 33.0138C84.2125 33.5298 83.6587 33.4795 83.835 33.4795C82.8532 36.5505 80.9527 39.3195 78.6368 41.5473C78.3725 41.7361 77.8439 42.1136 77.567 42.2773C73.5268 43.8505 69.2349 43.3723 65.094 43.1835C62.5138 42.9443 59.9588 42.6297 57.4164 42.1514C57.4164 42.1388 57.4416 41.8871 57.4416 41.8871Z"
    fill="#8C82FC" />
  <path
    d="M31.8914 42.7052C25.6738 42.9569 19.3178 43.0324 13.2638 41.3207C11.4136 40.7543 9.99134 39.2943 9.03479 38.0231C7.42374 35.8709 6.15253 33.5046 5.47287 30.8993L5.69942 30.7734C8.32995 33.3662 10.7339 36.5379 13.44 38.7028C18.9905 41.5221 25.7745 41.648 31.9166 42.4409C31.8914 42.4535 31.8914 42.7052 31.8914 42.7052Z"
    fill="#8C82FC" />
  <path
    d="M36.712 43.8506C36.8378 41.6228 39.4558 40.8676 41.2808 40.5152L40.9032 40.704C41.7087 39.4705 43.5589 38.3126 44.956 39.3069L44.9056 39.4202C43.4456 39.6593 42.6653 40.7921 41.5451 41.648C39.7956 41.6857 37.4042 41.8871 36.8378 43.8757C36.8253 43.8883 36.712 43.8506 36.712 43.8506Z"
    fill="#8C82FC" />
  <path
    d="M52.2057 43.8883C51.6393 41.8997 49.2479 41.6983 47.4984 41.6605C46.3782 40.8047 45.5979 39.6719 44.1379 39.4328L44.0875 39.3195C45.4846 38.3252 47.3348 39.4831 48.1403 40.7166L47.7627 40.5278C49.5877 40.8676 52.2057 41.6354 52.3315 43.8631C52.3189 43.8505 52.2057 43.8883 52.2057 43.8883Z"
    fill="#8C82FC" />
  <path
    d="M37.1273 26.9094C38.109 24.4425 40.1228 21.7113 43.0303 21.6232L44.163 21.5729C44.6036 21.5603 45.5098 21.4973 45.9377 21.5099C47.8886 21.6358 49.3989 23.1084 50.3303 24.6817C50.7331 25.3739 51.0729 26.0662 51.1988 26.8968L51.0729 26.9094C49.5374 25.0341 47.7879 22.8818 45.3084 22.6301C44.5029 22.5923 43.2946 22.5294 42.5017 22.5168C40.148 22.8063 38.3356 24.9208 37.2406 26.9094C37.2532 26.922 37.1273 26.9094 37.1273 26.9094Z"
    fill="#8C82FC" />
  <path
    d="M44.8679 31C44.6917 30.1567 44.5784 27.9541 46.0636 28.8855C46.7936 29.3134 47.6746 29.3889 48.4046 29.8043C48.8955 30.0938 49.3863 30.421 49.8143 30.937L49.7765 31.0503C49.1094 31.1888 48.5053 31.1132 47.9263 30.9622C47.0956 30.6979 46.0132 29.9553 45.4342 29.3763C45.2958 29.4896 45.0189 30.4713 44.9811 30.9874C44.9937 31 44.8679 31 44.8679 31Z"
    fill="#8C82FC" />
  <path
    d="M39.8837 29.9805C41.457 26.9472 42.1996 29.4519 42.7156 31.3398L42.187 30.8867C43.1058 30.7608 44.012 30.7105 44.9308 30.9244L44.4399 31.4153C44.528 30.9874 44.6665 30.5469 44.8679 30.1189H44.9937C45.258 30.6727 45.3839 31.2139 45.4972 31.7929C44.2386 32.1453 42.9673 32.0824 41.6835 31.9062C41.608 31 41.5325 29.8924 41.1927 29.0994C40.727 29.1498 40.2991 29.6784 39.9844 30.0434L39.8837 29.9805Z"
    fill="#8C82FC" />
  <path
    d="M45.6356 16.1104C47.1837 13.3163 52.1553 12.624 53.351 16.0601L53.2629 16.1482C52.8727 16.0223 52.5455 15.8713 52.2308 15.7202C51.2995 15.3804 50.4939 14.8895 49.4996 14.7511C48.027 14.5749 46.7684 15.3804 45.6356 16.1104Z"
    fill="#8C82FC" />
  <path
    d="M42.1367 16.1356C41.4444 15.3804 40.4753 14.6756 39.4684 14.5875C38.7258 14.5749 38.1342 14.8895 37.4168 15.0154C37.2154 15.0406 36.5987 15.3427 36.4603 15.1161C37.593 12.0199 41.4444 13.7316 42.2499 16.0601C42.2373 16.0727 42.1367 16.1356 42.1367 16.1356Z"
    fill="#8C82FC" />
  <path
    d="M46.1768 35.4052C46.9194 33.8319 49.1346 32.2082 50.9974 33.0767C51.6141 33.3914 52.0672 33.9074 52.3064 34.5367L52.2183 34.6374C50.9974 34.4486 50.2674 34.0458 49.1346 33.9955C48.0774 34.0584 47.0327 34.7255 46.265 35.4807C46.2775 35.4807 46.1768 35.4052 46.1768 35.4052Z"
    fill="#8C82FC" />
  <path
    d="M42.1241 35.4681C41.5954 34.7255 40.878 34.1088 40.1354 33.8822C39.2292 33.7312 38.688 33.7941 37.6937 33.492L37.6434 33.3788C38.2727 32.3467 39.6949 32.2586 40.576 32.976C41.5073 33.5676 42.0108 34.4989 42.2373 35.4177C42.2499 35.4177 42.1241 35.4681 42.1241 35.4681Z"
    fill="#8C82FC" />
  <path
    d="M44.5784 47.1607C44.5784 49.1368 44.5658 51.4778 45.4846 53.2021C45.7363 53.5923 46.0384 53.7937 46.3405 53.7937C47.8131 53.9196 48.7193 53.0385 49.7262 51.8177L49.8395 51.8554C49.7765 52.9756 49.2227 54.1461 48.0396 54.8006C44.8427 56.1851 43.9113 52.7364 44.0624 50.3576C44.1001 49.2752 44.2386 48.2054 44.4399 47.1481C44.4525 47.1481 44.5784 47.1607 44.5784 47.1607Z"
    fill="#8C82FC" />
  <path
    d="M39.3299 51.7421C39.6698 52.8623 40.362 54.1713 41.6836 53.7811C42.8289 53.3784 43.4456 52.4847 44.4525 51.6666L44.5658 51.7044C44.6539 52.4721 44.3896 53.1896 43.9239 53.8189C42.9799 55.0397 40.5508 55.2159 39.7075 53.7937C39.3299 53.1266 39.2544 52.4344 39.2041 51.7547L39.3299 51.7421Z"
    fill="#8C82FC" />
  <path
    d="M38.5118 46.1664C40.6137 45.9902 42.7282 45.8392 44.8301 45.7259C46.9698 45.5119 49.0591 45.4868 51.1484 46.1664V46.2923C49.0591 46.9719 46.9572 46.9468 44.8301 46.7328C42.7282 46.6195 40.6137 46.4685 38.5118 46.2923V46.1664Z"
    fill="#8C82FC" />
  <path
    d="M36.712 69.5769L37.5175 67.11L37.5427 67.0219C39.6446 66.5058 41.7591 66.0275 43.861 65.5493C46.7055 65.8388 49.55 66.0779 52.3064 66.9086C52.5455 67.7015 52.772 68.4945 52.9357 69.3126L52.8224 69.3629C52.3693 68.7336 51.9665 68.0791 51.5889 67.4246L51.9162 67.6763C49.4241 67.6386 45.8118 66.9715 43.9868 66.5058C41.9101 66.8079 39.8334 67.1226 37.744 67.3994L37.8951 67.2736L36.8378 69.6398L36.712 69.5769Z"
    fill="#8C82FC" />
  <path
    d="M38.537 72.8619C39.7075 73.3779 40.9032 73.8688 42.0611 74.4226L41.8849 74.3722C43.1561 74.2967 44.4274 74.2212 45.6986 74.1079L45.5098 74.1331C46.1769 73.8562 46.8817 73.7052 47.5865 73.5667C48.2913 73.4283 49.0213 73.3528 49.7891 73.3779L49.8269 73.5038C48.5808 74.3848 47.2215 75.0393 45.7489 75.3791C44.4651 75.2659 43.1813 75.1904 41.8975 75.1148C40.8906 74.6743 39.5565 73.6045 38.4992 72.9752C38.4741 72.9752 38.537 72.8619 38.537 72.8619Z"
    fill="#8C82FC" />
  <path
    d="M46.6174 37.5574C47.7124 36.991 48.4675 36.1603 49.122 35.1157C49.3234 34.8136 49.7514 34.5619 50.1667 34.5871C52.0169 34.7884 52.9608 36.5505 53.351 38.1867L53.2755 38.2371C52.2938 37.3938 51.7148 36.4372 50.7457 35.6443C50.3177 35.3171 49.915 35.1534 49.6129 35.5184C48.9081 36.4498 47.8131 37.2931 46.6677 37.6455C46.6425 37.6455 46.6174 37.5574 46.6174 37.5574Z"
    fill="#8C82FC" />
  <path
    d="M36.0575 37.419C37.0015 36.9155 37.6308 36.1981 38.1846 35.2793C38.3608 35.015 38.751 34.7759 39.1285 34.801C40.7648 34.9646 41.608 36.4876 41.8849 37.9602L41.8094 38.0105C41.3186 37.6455 40.9284 37.205 40.576 36.7645C40.1858 36.5379 39.3048 35.0905 38.6754 35.6946C38.0587 36.4876 37.1022 37.2176 36.0953 37.5071C36.0827 37.5071 36.0575 37.419 36.0575 37.419Z"
    fill="#8C82FC" />
  <path
    d="M48.9584 37.5952C49.0843 38.2497 49.3612 39.4328 50.066 39.5335C50.7205 39.4076 51.4757 38.7909 52.2308 38.6524L52.2938 38.7153C51.8532 40.5026 49.2982 41.0941 48.8955 39.0048C48.8074 38.5266 48.8074 38.0609 48.8577 37.6078H48.9584V37.5952Z"
    fill="#8C82FC" />
  <path
    d="M37.228 38.6272C37.5301 38.9419 38.3608 39.7726 38.7132 39.3824C38.9397 38.8538 39.1034 38.1238 39.6068 37.5952L39.6949 37.6078C40.4879 38.8664 39.1034 41.1067 37.7566 39.6845C37.4797 39.3698 37.2909 39.03 37.1399 38.6776L37.228 38.6272Z"
    fill="#8C82FC" />
  <path
    d="M39.8459 42.1262C40.2361 42.9443 40.8654 44.354 41.7716 44.4673C42.3129 44.4043 42.8289 43.4981 43.2946 43.0828C43.4456 42.9443 43.8232 42.378 44.012 42.4912C43.9868 43.1205 43.8106 43.7121 43.496 44.2659C42.4891 45.8266 40.8654 45.3861 40.2613 43.8631C40.0222 43.3093 39.8585 42.7304 39.7578 42.164L39.8459 42.1262Z"
    fill="#8C82FC" />
  <path
    d="M49.2227 42.1514C48.9207 43.3471 48.7319 44.7442 47.3096 45.2224C45.8118 45.4364 44.9937 43.7499 44.9686 42.4912C45.1574 42.378 45.5475 42.9569 45.686 43.0828C46.1517 43.4981 46.6803 44.4043 47.2089 44.4673C48.1151 44.3414 48.7444 42.9317 49.1346 42.1262L49.2227 42.1514Z"
    fill="#8C82FC" />
  <path
    d="M49.8394 43.4855C50.6198 44.6183 51.4127 44.4547 52.256 45.3483V45.449C51.6896 45.9525 50.8841 45.6881 50.5065 45.1218C50.0912 44.6561 49.8394 44.1023 49.7513 43.5359L49.8394 43.4855Z"
    fill="#8C82FC" />
  <path
    d="M39.481 43.7373C39.3299 44.5806 38.2727 45.9525 37.3916 45.0211V44.933C37.744 44.4799 37.8951 44.3666 38.3859 44.3162C38.7258 44.203 39.0782 44.0016 39.3928 43.7121L39.481 43.7373Z"
    fill="#8C82FC" />
  <path
    d="M46.0887 18.2753C47.1838 17.7089 47.9389 16.8782 48.5934 15.8335C48.7948 15.5314 49.2227 15.2797 49.6381 15.3049C51.4883 15.5063 52.4322 17.2684 52.8224 18.9046L52.7469 18.9549C51.7652 18.1116 51.1862 17.1551 50.217 16.3621C49.7891 16.0349 49.3863 15.8713 49.0843 16.2363C48.3794 17.1677 47.2844 18.0109 46.1391 18.3634C46.1265 18.3634 46.0887 18.2753 46.0887 18.2753Z"
    fill="#8C82FC" />
  <path
    d="M35.5415 18.1368C36.4854 17.6334 37.1147 16.9159 37.6685 15.9971C37.8447 15.7328 38.2349 15.4937 38.6125 15.5189C40.2487 15.6825 41.092 17.2054 41.3689 18.678L41.2934 18.7284C40.8025 18.3634 40.4123 17.9228 40.0599 17.4823C39.6698 17.2558 38.7887 15.8083 38.1594 16.4125C37.5427 17.2054 36.5861 17.9354 35.5792 18.2249C35.5666 18.2249 35.5415 18.1368 35.5415 18.1368Z"
    fill="#8C82FC" />
  <path
    d="M48.2284 18.6906C48.6563 19.2822 49.2353 20.0122 49.915 20.2261C50.3932 20.3016 50.645 19.9241 51.0603 19.7227C51.1988 19.6472 51.5134 19.2822 51.6896 19.3954C51.8155 20.4904 50.6701 21.5854 49.6129 20.9184C48.7696 20.4023 48.4298 19.5842 48.1403 18.7284L48.2284 18.6906Z"
    fill="#8C82FC" />
  <path
    d="M36.5609 18.6906C36.9889 19.2822 37.5678 20.0122 38.2475 20.2261C38.7258 20.3016 38.9775 19.9241 39.3929 19.7227C39.5313 19.6472 39.846 19.2822 40.0222 19.3954C40.148 20.4904 39.0027 21.5854 37.9454 20.9184C37.1022 20.4023 36.7623 19.5842 36.4728 18.7284L36.5609 18.6906Z"
    fill="#8C82FC" />
  <path
    d="M45.107 23.5867C45.4469 23.9139 45.837 24.1908 46.1894 24.2789C46.6803 24.2411 46.7432 24.2915 47.3348 24.4551C47.4984 24.7446 47.0453 25.1474 46.7558 25.2103C46.4286 25.311 46.0762 25.1348 45.8496 24.9586C45.3587 24.6061 45.1322 24.1153 45.0189 23.637L45.107 23.5867Z"
    fill="#8C82FC" />
  <path
    d="M42.5142 23.637C42.3632 24.3418 41.6835 25.3865 40.7773 25.2229C40.5004 25.1599 40.0473 24.7572 40.1984 24.4677C40.7773 24.3167 40.8529 24.2663 41.3437 24.2915C41.6961 24.2034 42.0989 23.9265 42.4261 23.5992L42.5142 23.637Z"
    fill="#8C82FC" />
  <path
    d="M45.5349 27.2115C46.3153 26.771 47.6243 27.5136 48.4298 27.7527C49.3989 28.0674 50.2674 28.5456 50.7834 29.4896L50.7331 29.5651C48.7193 29.4644 47.4103 27.4632 45.5349 27.2115Z"
    fill="#8C82FC" />
  <path
    d="M41.8094 27.2618C41.2305 27.1234 40.6137 27.6772 40.148 27.9918C39.6446 28.5079 39.2292 28.7974 38.4866 28.9988L38.4111 28.9484C38.4111 27.652 39.7704 27.2744 40.8025 27.0227C41.1423 26.9975 41.5703 26.9094 41.8724 27.1989L41.8094 27.2618Z"
    fill="#8C82FC" />
  <path
    d="M53.2126 61.6853C52.3567 60.5651 50.8338 59.2184 49.3989 59.8729C48.392 60.4644 47.725 61.5594 46.63 62.0629C46.2524 62.2517 45.8748 62.4782 45.3839 62.4782V62.3901C46.6048 61.3329 47.4984 59.7092 49.1346 59.168C51.01 58.5765 52.5077 60.1875 53.2881 61.6349L53.2126 61.6853Z"
    fill="#8C82FC" />
  <path
    d="M36.3721 61.4462C38.2601 57.9723 40.513 59.4701 42.3632 62.0125V62.1006C41.9605 62.1258 41.671 61.9748 41.3689 61.8363C40.513 61.4965 40.0096 60.6784 39.2922 60.2001C38.2601 59.6967 37.1022 60.691 36.4477 61.4965L36.3721 61.4462Z"
    fill="#8C82FC" />
  <path
    d="M37.5175 61.5091C37.6937 62.1636 37.958 63.7494 38.6125 63.9005C38.8139 63.8753 39.0908 63.7117 39.3425 63.611C39.4935 63.5606 39.8711 63.246 40.0222 63.3844C39.9341 64.6053 38.3734 65.5493 37.6937 64.1648C37.291 63.2837 37.3413 62.4279 37.4168 61.5217C37.4168 61.5091 37.5175 61.5091 37.5175 61.5091Z"
    fill="#8C82FC" />
  <path
    d="M51.5512 61.2699C51.5889 62.3775 51.8155 63.9382 50.5946 64.555C49.6632 64.8319 49.0213 63.8879 48.9332 63.1453L49.0088 63.0824C49.4115 63.2082 49.7639 63.4599 50.1038 63.5732C50.4058 63.6739 50.3807 63.7368 50.6198 63.5103C51.0603 62.9187 51.2743 62.0125 51.4379 61.2699C51.4631 61.2574 51.5512 61.2699 51.5512 61.2699Z"
    fill="#8C82FC" />
  <path
    d="M47.1082 63.2208C47.9641 63.3844 49.487 63.8753 49.0214 65.0458L48.9332 65.0836C48.3543 64.9325 48.1403 64.7563 47.9263 64.2781C47.6872 63.9508 47.3977 63.611 47.0579 63.3089L47.1082 63.2208Z"
    fill="#8C82FC" />
  <path
    d="M42.3758 63.246C41.4444 63.9634 41.5451 64.7941 40.513 65.0206L40.4249 64.9829C40.1732 64.3913 40.4753 63.8879 41.0039 63.6613C41.4192 63.397 41.8723 63.2208 42.3506 63.1579L42.3758 63.246Z"
    fill="#8C82FC" />
  <path
    d="M38.2727 70.8733C39.632 71.4019 41.9479 72.1822 42.8163 72.5976L45.4343 72.4717C46.4034 72.1193 49.1724 71.3893 50.4939 71.6536C48.8829 72.4717 47.1963 73.0633 45.4343 73.3653L42.8163 73.2395C41.2556 72.585 39.7579 71.7165 38.2349 70.974C38.2349 70.9614 38.2727 70.8733 38.2727 70.8733Z"
    fill="#8C82FC" />
  <path
    d="M39.8586 67.8022C40.2487 68.6203 40.878 70.03 41.7843 70.1433C42.3255 70.0803 42.8415 69.1741 43.3072 68.7588C43.4582 68.6203 43.8358 68.0539 44.0246 68.1672C43.9994 68.7965 43.8232 69.3881 43.5086 69.9419C42.5017 71.5026 40.878 71.0621 40.2739 69.5391C40.0348 68.9853 39.8711 68.4064 39.7704 67.84C39.7704 67.8274 39.8586 67.8022 39.8586 67.8022Z"
    fill="#8C82FC" />
  <path
    d="M49.2353 67.8274C48.9332 69.0231 48.7444 70.4202 47.3222 70.8984C45.8244 71.1124 45.0063 69.4258 44.9812 68.1672C45.1699 68.0539 45.5601 68.6329 45.6986 68.7588C46.1643 69.1741 46.6929 70.0803 47.2215 70.1433C48.1277 70.0174 48.757 68.6077 49.1472 67.8022L49.2353 67.8274Z"
    fill="#8C82FC" />
  <path
    d="M38.2601 57.041C42.3129 57.0158 46.8187 55.9711 50.6324 57.1291C48.5808 57.6325 46.5293 57.6199 44.4399 57.4563C42.4513 57.2927 40.0725 57.4311 38.2601 57.041Z"
    fill="#8C82FC" />
  <path
    d="M51.6393 10.1445C50.5694 10.3081 49.4996 10.5725 48.4298 10.5725C48.2032 10.5221 47.3977 10.3585 47.36 10.0564C48.0396 9.56556 48.7444 9.55297 49.4996 9.72918C50.217 9.81729 50.9219 9.91797 51.6393 10.0564C51.6393 10.0438 51.6393 10.1445 51.6393 10.1445Z"
    fill="#8C82FC" />
  <path
    d="M41.4066 10.1445C40.3368 10.3081 39.267 10.5725 38.1972 10.5725C37.9706 10.5221 37.1651 10.3585 37.1273 10.0564C37.807 9.56556 38.5118 9.55297 39.267 9.72918C39.9844 9.81729 40.6892 9.91797 41.4066 10.0564C41.4066 10.0438 41.4066 10.1445 41.4066 10.1445Z"
    fill="#8C82FC" />
  <path
    d="M43.4582 76.4238C44.012 78.2236 44.6665 81.6094 42.1996 82.2009C41.0417 82.3897 39.7075 81.9492 39.1789 80.8416C38.7384 79.7969 38.8139 78.3621 39.3929 77.6069C39.053 79.6585 39.7453 81.8611 42.1241 81.6975C43.1813 81.6219 43.5589 80.464 43.647 79.5452C43.8232 78.5383 43.5211 77.3426 43.4582 76.4238Z"
    fill="#8C82FC" />
  <path
    d="M46.1139 76.449C45.7867 78.0223 45.2832 81.3073 47.3977 81.71C49.7765 81.8737 50.4688 79.6711 50.1289 77.6195C50.6953 78.3747 50.7834 79.8095 50.3429 80.8542C49.6003 82.44 46.781 82.8806 45.9377 81.194C45.3084 79.734 45.4972 77.7328 46.1139 76.449Z"
    fill="#8C82FC" />
  <path
    d="M44.9812 85.9264C44.9812 83.3211 48.9458 82.5533 50.9974 82.7924C50.9093 83.5225 50.8212 84.2399 50.5569 84.9573H50.4688C50.2548 84.3657 50.1541 83.7742 50.0786 83.1826L50.5191 83.6231C48.6563 83.8749 45.5853 83.535 45.0818 85.9138C45.0693 85.9138 44.9812 85.9264 44.9812 85.9264Z"
    fill="#8C82FC" />
  <path
    d="M44.9686 85.9139C44.4525 83.535 41.3941 83.8749 39.5313 83.6232L39.9718 83.1826C39.8963 83.7742 39.7956 84.3657 39.5816 84.9573H39.481C39.2166 84.2399 39.1285 83.5225 39.0404 82.7925C40.9032 82.6037 43.0177 83.0316 44.4148 84.328C44.8175 84.7559 45.1196 85.3349 45.0441 85.939L44.9686 85.9139Z"
    fill="#8C82FC" />
  <path
    d="M46.5922 86.1404C47.2844 85.8509 47.9641 85.4482 48.6689 85.3223C48.8451 85.3475 49.4115 85.4104 49.487 85.6999C49.1346 86.2411 48.6815 86.3796 48.1025 86.2914C47.7124 86.2537 46.6677 86.3795 46.5922 86.1404Z"
    fill="#8C82FC" />
  <path
    d="M43.3323 86.1027C42.5898 86.1278 41.8094 86.2537 41.092 86.1152C40.9284 86.0271 40.4249 85.7628 40.4627 85.4733C40.9913 85.0958 41.457 85.1335 41.9604 85.423C42.3254 85.5866 43.3449 85.8509 43.3323 86.1027Z"
    fill="#8C82FC" />
  <path
    d="M52.2938 74.7498C52.0169 77.0154 52.2812 79.369 52.2308 81.559C51.4882 80.5899 51.5008 79.2935 51.6519 78.1481C51.8029 77.0531 51.8784 75.6812 52.2938 74.7498Z"
    fill="#8C82FC" />
  <path
    d="M37.5049 74.7372C37.8825 76.4238 38.2475 78.1607 38.1342 79.8976C38.0461 80.3256 37.8699 81.3954 37.442 81.5338C37.6308 79.2935 37.5301 76.8895 37.5049 74.7372Z"
    fill="#8C82FC" />
  <path
    d="M43.4205 87.6004C43.9742 89.4003 44.6287 92.786 42.1618 93.3775C41.0039 93.5663 39.6697 93.1258 39.1411 92.0182C38.7006 90.9735 38.7761 89.5387 39.3551 88.7835C39.0153 90.8351 39.7075 93.0377 42.0863 92.8741C43.1436 92.7985 43.5211 91.6406 43.6092 90.7218C43.7854 89.7149 43.4834 88.5192 43.4205 87.6004Z"
    fill="#8C82FC" />
  <path
    d="M46.0761 87.6256C45.7489 89.1989 45.2455 92.4839 47.3599 92.8866C49.7388 93.0503 50.431 90.8477 50.0912 88.7961C50.6575 89.5513 50.7457 90.9861 50.3051 92.0308C49.5625 93.6166 46.7432 94.0572 45.8999 92.3706C45.258 90.9106 45.4594 88.9094 46.0761 87.6256Z"
    fill="#8C82FC" />
  <path
    d="M44.9308 97.103C44.9308 94.4977 48.8955 93.7299 50.9471 93.9691C50.8589 94.6991 50.7708 95.4165 50.5065 96.1339H50.4058C50.1919 95.5423 50.0912 94.9508 50.0157 94.3592L50.4562 94.7997C48.5934 95.0515 45.5224 94.7116 45.0189 97.0904C45.0315 97.0904 44.9308 97.103 44.9308 97.103Z"
    fill="#8C82FC" />
  <path
    d="M44.9308 97.0904C44.4148 94.7116 41.3563 95.0515 39.4935 94.7997L39.9341 94.3592C39.8585 94.9508 39.7578 95.5423 39.5439 96.1339H39.4558C39.1915 95.4165 39.1034 94.6991 39.0153 93.9691C40.878 93.7803 42.9925 94.2082 44.3896 95.5046C44.7924 95.9325 45.0944 96.5115 45.0189 97.1156L44.9308 97.0904Z"
    fill="#8C82FC" />
  <path
    d="M46.5418 97.317C47.2341 97.0275 47.9137 96.6248 48.6186 96.4989C48.7948 96.5241 49.3612 96.587 49.4367 96.8765C49.0843 97.4177 48.6312 97.5561 48.0522 97.468C47.6746 97.4303 46.6174 97.5561 46.5418 97.317Z"
    fill="#8C82FC" />
  <path
    d="M43.2946 97.2793C42.552 97.3044 41.7717 97.4303 41.0542 97.2918C40.8906 97.2037 40.3872 96.9394 40.4249 96.6499C40.9536 96.2724 41.4192 96.3101 41.9227 96.5996C42.2751 96.7632 43.3072 97.0275 43.2946 97.2793Z"
    fill="#8C82FC" />
  <path
    d="M52.105 88.0032L52.5077 90.0799C52.7091 90.6715 52.772 91.5147 52.7846 92.1315C52.4952 92.207 52.2057 91.4266 52.1176 91.2127C51.9791 90.3946 51.891 88.708 52.105 88.0032Z"
    fill="#8C82FC" />
  <path
    d="M37.6308 87.8773C37.6811 88.9346 37.7692 90.0296 37.5553 91.0868C37.4672 91.3008 37.1777 92.0685 36.8882 92.0056C36.9008 91.3763 36.9511 90.5456 37.1651 89.954L37.5678 87.8773H37.6308Z"
    fill="#8C82FC" />
  <path
    d="M41.4444 98.7644C42.8667 100.514 44.8049 102.377 45.1951 104.642C45.1574 104.453 44.8175 104.39 44.7168 104.491C45.7615 102.528 46.4663 100.35 48.1403 98.7644C47.6746 100.589 46.7306 102.679 45.7237 104.403C45.5727 104.642 45.4343 104.881 45.2077 105.083C44.9937 105.284 44.5658 105.221 44.4777 104.894C44.226 102.591 42.5772 100.74 41.3689 98.8148C41.3815 98.8274 41.4444 98.7644 41.4444 98.7644Z"
    fill="#8C82FC" />
  <path
    d="M40.0222 105.41C43.4834 108.003 47.0327 108.292 50.4184 105.41L50.4939 105.473C48.455 110.042 42.4261 108.393 40.0222 105.41Z"
    fill="#8C82FC" />
  <path
    d="M61.9349 104.793L64.2507 112.295L64.4144 112.811L63.848 112.836C51.1484 113.088 38.4363 114.246 25.7619 113.302C26.3157 111.086 26.8569 108.846 27.5492 106.656C29.135 100.678 28.0149 111.351 27.9519 112.572L26.9954 111.439C33.1375 110.923 39.2796 111.162 45.4343 111.401C51.5764 111.59 57.7185 111.716 63.8731 111.98L63.4578 112.521L61.7335 104.869L61.9349 104.793Z"
    fill="#8C82FC" />
  <path
    d="M26.9702 117.166C32.1935 116.813 39.783 116.498 45.0818 116.285C51.161 115.857 57.1898 115.794 63.1935 117.166V117.417C57.1898 118.789 51.1484 118.726 45.0818 118.298L36.0197 117.921C32.999 117.757 29.9783 117.619 26.9576 117.417C26.9702 117.417 26.9702 117.166 26.9702 117.166Z"
    fill="#8C82FC" />
  <path
    d="M54.9872 104.768C56.1452 104.554 57.3283 104.202 58.4736 104.202C58.8638 104.29 59.254 104.416 59.6316 104.768V104.894C58.9016 105.548 58.1464 105.574 57.3031 105.334C56.5228 105.221 55.755 105.07 54.9747 104.894V104.768H54.9872Z"
    fill="#8C82FC" />
  <path
    d="M31.023 104.768C32.2942 104.554 33.5906 104.202 34.8492 104.202C35.2771 104.29 35.7051 104.416 36.1204 104.768V104.894C35.3149 105.548 34.4842 105.561 33.5654 105.334C32.7095 105.221 31.8663 105.07 31.0104 104.894C31.023 104.894 31.023 104.768 31.023 104.768Z"
    fill="#8C82FC" />
</svg>
